<svg width="104" height="90" viewBox="0 0 104 90" fill="none" xmlns="http://www.w3.org/2000/svg">
<path fill-rule="evenodd" clip-rule="evenodd" d="M31.6441 4.32719C30.8361 4.58906 30.6523 4.8893 30.6074 5.0077C30.3592 5.66242 30.1213 6.26788 29.897 6.83882C28.7071 9.86752 27.899 11.9243 27.9487 15.2056C28.043 21.4332 30.8511 27.7013 35.2086 33.0406C35.9578 33.9586 36.7493 34.8446 37.5757 35.6939C40.3703 36.2288 43.1465 37.044 46.044 38.2331C46.7868 38.538 47.6297 38.6895 48.7168 38.8849C48.9071 38.9191 49.1048 38.9546 49.3107 38.9926C49.4185 39.0124 49.529 39.033 49.6418 39.0547C49.7513 38.4351 49.8697 37.8221 49.9924 37.2179C49.943 36.7152 49.8923 36.2111 49.8414 35.7057C49.7992 35.2863 49.7569 34.8659 49.7152 34.4447C49.6194 33.477 49.53 32.4918 49.4395 31.4946C49.0512 27.218 48.643 22.7211 47.629 18.4439C46.3858 13.2001 44.2954 8.60951 40.4907 5.47523C40.2269 5.25791 39.5279 4.90114 38.3912 4.58292C37.3139 4.2813 36.0405 4.06908 34.8 4.01407C33.5404 3.95822 32.4374 4.07004 31.6441 4.32719ZM52.7565 24.6268C52.4603 22.2618 52.0747 19.8565 51.5211 17.5211C50.1821 11.8736 47.7963 6.31107 43.0341 2.38792C42.1222 1.6367 40.7787 1.09752 39.4696 0.731025C38.1012 0.347931 36.5256 0.0866546 34.9772 0.0180006C33.4479 -0.0498045 31.8223 0.0645646 30.4107 0.522065C29.0138 0.97484 27.5164 1.87771 26.8673 3.58949C26.6514 4.15896 26.4325 4.71186 26.2167 5.25691C25.0025 8.32379 23.8867 11.1423 23.9491 15.2662C24.0568 22.3769 27.1289 29.2451 31.6125 34.9491C30.1983 34.8573 28.7561 34.8169 27.2697 34.8169C23.6071 34.8169 18.5739 34.9614 13.7511 35.877C9.00117 36.7788 4.06499 38.497 0.977753 41.9416C0.307972 42.6889 0.0766055 43.5849 0.0174863 44.3238C-0.0417532 45.0642 0.0573281 45.8008 0.19735 46.4326C0.476865 47.6938 1.00037 48.8903 1.35922 49.5694C7.50358 61.1977 22.4045 64.9247 34.1264 61.107C34.2847 61.0554 34.4494 61.0023 34.6197 60.9472C35.3116 60.7238 36.0967 60.4703 36.9186 60.1757C36.6683 62.477 36.6099 64.8348 36.7471 67.1545C37.1326 73.6764 39.0895 80.2907 43.1205 84.6413C45.3943 87.0955 49.6552 89.3 53.6412 89.8606C55.659 90.1445 57.8279 90.0396 59.7078 89.121C61.6761 88.1592 63.1083 86.4088 63.7048 83.8896C64.9679 78.5547 64.5027 72.2436 63.8905 67.2563C63.4688 63.8216 62.8408 60.5134 61.843 57.2212C63.7225 59.0849 65.7664 60.8196 68.0481 62.3658C68.1359 62.4253 68.2241 62.485 68.3127 62.5451C71.819 64.9216 75.9184 67.7002 80.2772 69.8018C84.7459 71.9564 89.6723 73.4944 94.7193 73.0905C98.844 72.7604 101.678 71.0499 103.064 68.1645C104.36 65.4653 104.152 62.1902 103.395 59.1583C101.874 53.0634 97.75 46.46 94.7507 43.355C92.3211 40.8398 90.0334 39.2533 87.397 38.3736C84.8039 37.5083 82.0464 37.3881 78.8252 37.4973C76.9028 37.5625 74.1393 37.9829 71.2123 38.5681C71.3483 38.4737 71.4839 38.3786 71.6187 38.2827C73.2173 37.1459 74.8971 35.7772 76.1131 33.9691C79.2311 29.3326 81.0137 23.1951 81.1492 17.7076L81.1516 17.6105C81.2029 15.5407 81.286 12.1845 80.5723 9.31259C80.2069 7.84244 79.5899 6.30705 78.4897 5.11542C77.3279 3.85703 75.7375 3.10605 73.7563 3.10605C68.1906 3.10605 62.9891 6.61478 59.6398 10.384C55.9894 14.4921 54.0699 19.5819 52.7565 24.6268ZM49.0499 43.9799C49.0658 43.6623 49.0869 43.3451 49.1125 43.0283C48.946 42.9942 48.7707 42.9604 48.5861 42.9264C48.4287 42.8974 48.2623 42.868 48.0888 42.8374C47.5006 42.7335 46.8306 42.6152 46.1502 42.4483C47.1076 43.0106 48.0765 43.5226 49.0499 43.9799ZM35.6417 39.4146C32.9743 38.986 30.2394 38.8169 27.2697 38.8169C23.6782 38.8169 18.9449 38.9624 14.4972 39.8068C10.0184 40.6571 6.20947 42.1488 4.01725 44.5442C4.01304 44.5663 4.00829 44.5986 4.00474 44.6429C3.9884 44.8471 4.01202 45.1584 4.1026 45.5671C4.28427 46.3869 4.65352 47.242 4.89585 47.7006C9.90127 57.1735 22.5058 60.6849 32.8877 57.3036C33.0358 57.2554 33.1852 57.2069 33.3358 57.1581C34.77 56.6931 36.3063 56.195 37.7024 55.5549C38.2839 53.0777 39.1101 50.757 40.1759 48.7314C40.4644 48.1831 41.2793 46.9109 42.838 47.0592C43.5305 47.1251 44.0267 47.4709 44.3167 47.7379C44.6105 48.0085 44.8187 48.3116 44.9611 48.5536C45.2468 49.0393 45.4416 49.5806 45.5632 50.0097C45.671 50.3903 45.7924 50.9313 45.7796 51.405C45.6899 54.7266 43.4804 56.8589 41.2376 58.2121C40.7442 60.9787 40.5651 63.9575 40.7401 66.9185C41.0967 72.9511 42.8974 78.5151 46.0546 81.9227C47.6421 83.6361 51.0317 85.4542 54.1984 85.8996C55.7569 86.1189 57.0399 85.9727 57.9516 85.5272C58.7749 85.1248 59.4738 84.398 59.8124 82.968C60.8979 78.3832 60.5277 72.6917 59.9203 67.7437C59.3838 63.3738 58.5098 59.3328 56.9569 55.2994C56.7672 54.8066 56.1552 53.0605 55.6375 51.5166C55.3771 50.7403 55.1304 49.9846 54.9663 49.4409C54.8888 49.1839 54.8121 48.9168 54.7665 48.7095C54.7542 48.6538 54.7386 48.5773 54.726 48.4921L54.7255 48.4885C54.7177 48.436 54.6881 48.2356 54.7077 47.9921L54.7078 47.9914C54.7152 47.8993 54.745 47.5293 54.9775 47.1316C55.0868 46.9447 55.2684 46.7052 55.5527 46.5047C55.4729 46.4221 55.395 46.3286 55.3223 46.2227C54.9002 45.6077 54.8633 44.8886 55.07 44.3005C55.2376 43.8237 55.5315 43.5133 55.6891 43.3636C56.0177 43.0516 56.4196 42.8253 56.7169 42.6733C57.8012 42.1185 59.7057 41.4708 61.8763 40.8402C62.1119 40.6114 62.3466 40.3793 62.5821 40.1465C62.6776 40.0521 62.7732 39.9575 62.8691 39.863C63.4447 39.2955 64.0723 38.6851 64.6474 38.2421C65.4098 37.6547 66.221 37.1033 67.0031 36.5806C67.1534 36.4802 67.3022 36.3811 67.4497 36.2828C68.0867 35.8586 68.6999 35.4501 69.3005 35.023C70.7843 33.9678 71.9876 32.9357 72.7938 31.7369C75.448 27.7902 77.032 22.4078 77.1504 17.6089C77.204 15.4371 77.2621 12.578 76.6904 10.2773C76.4074 9.13849 76.0129 8.32943 75.5508 7.82885C75.1502 7.39503 74.6273 7.10605 73.7563 7.10605C69.7907 7.10605 65.5888 9.71114 62.6299 13.041C58.0923 18.1475 56.6354 25.1115 55.1337 32.2901C55.0351 32.7616 54.9363 33.234 54.8364 33.7069C54.7138 34.2869 54.5886 34.8638 54.4641 35.4376C54.3181 36.1107 54.173 36.7795 54.0341 37.4439C54.3736 40.9827 54.6406 44.6985 54.36 48.3479C54.3357 48.6639 54.2872 49.0028 54.1863 49.3286C54.0963 49.6195 53.8987 50.1202 53.4301 50.5232C52.8478 51.0242 52.0907 51.1657 51.4083 50.9788C50.8568 50.8277 50.4895 50.5034 50.3041 50.3153C49.9149 49.9202 49.6559 49.4308 49.4962 49.0529C49.4165 48.8646 49.3424 48.6583 49.2808 48.4412C44.4434 46.5021 39.6935 43.3454 35.6417 39.4146ZM63.9162 44.4186C63.8524 44.4775 63.7884 44.5361 63.7243 44.5943C63.0257 45.228 62.2353 45.8812 61.4039 46.3836C60.6402 46.845 59.6785 47.2804 58.6104 47.3276C62.0583 51.8871 65.6786 55.9282 70.292 59.0544L70.467 59.173C74.0328 61.5896 77.9235 64.2263 82.0144 66.1987C86.1725 68.2036 90.3522 69.4272 94.4002 69.1032C97.5223 68.8534 98.8501 67.6988 99.4577 66.4332C100.155 64.9813 100.186 62.8193 99.5143 60.1272C98.1778 54.7739 94.4307 48.7811 91.8738 46.1341C89.746 43.9314 87.9846 42.7865 86.1309 42.1679C84.234 41.5349 82.0605 41.3899 78.9607 41.495C75.6782 41.6063 69.0089 42.9997 63.9162 44.4186ZM43.7435 50.5459C43.7436 50.546 43.7419 50.5487 43.7383 50.5537C43.7416 50.5484 43.7433 50.5459 43.7435 50.5459ZM41.5033 50.5657C41.5028 50.565 41.5042 50.5668 41.5072 50.5716C41.5049 50.5683 41.5036 50.5663 41.5033 50.5657ZM4.02702 44.5049C4.02706 44.505 4.02662 44.5064 4.02557 44.509C4.02645 44.5062 4.02697 44.5049 4.02702 44.5049Z" fill="#E70061"/>
<path fill-rule="evenodd" clip-rule="evenodd" d="M36.2409 7.73713C35.5305 7.9159 35.4168 8.14798 35.406 8.17169C35.1422 8.74775 34.8916 9.2785 34.6559 9.77766C33.4099 12.4164 32.5807 14.1722 32.4316 17.0707C32.1475 22.5946 34.2689 28.3312 37.839 33.3476C38.4403 34.1925 39.0796 35.0124 39.751 35.8029C42.2156 36.4509 44.6496 37.3467 47.1689 38.581C47.7961 38.8883 48.5193 39.0687 49.4835 39.3091C49.6526 39.3512 49.8291 39.3953 50.0138 39.4421C50.0456 39.4502 50.0778 39.4584 50.1103 39.4667C50.2285 38.9945 50.3518 38.5277 50.4777 38.0673C50.4637 37.6242 50.4486 37.1797 50.4335 36.7337C50.4208 36.3564 50.4079 35.9781 50.3957 35.5988C50.3675 34.7228 50.346 33.8325 50.3243 32.9324C50.2314 29.08 50.1342 25.0466 49.4829 21.1713C48.6848 16.422 47.0964 12.2364 43.918 9.24528C43.7254 9.06401 43.1517 8.71402 42.1599 8.36404C41.2261 8.03456 40.1119 7.77185 39.0183 7.65016C37.9056 7.52635 36.936 7.5622 36.2409 7.73713ZM54.0486 25.9533C53.9211 24.1391 53.7295 22.3049 53.4276 20.5084C52.5606 15.349 50.7414 10.1739 46.6593 6.33234C45.8555 5.5759 44.6512 5.00142 43.4909 4.59198C42.2724 4.16205 40.8602 3.83042 39.4606 3.67469C38.08 3.52108 36.5893 3.52473 35.2647 3.85807C33.9554 4.18756 32.4897 4.93251 31.7691 6.50645C31.5433 6.99947 31.3152 7.47897 31.0897 7.95284C29.817 10.6281 28.6293 13.1242 28.4369 16.8652C28.1138 23.1481 30.3633 29.3801 33.9145 34.7014C32.7902 34.5628 31.643 34.458 30.4634 34.3793C27.1757 34.1602 22.6389 33.9878 18.2408 34.5219C13.9164 35.047 9.33165 36.2975 6.30847 39.2461C5.62062 39.917 5.34659 40.7538 5.24541 41.4395C5.14403 42.1267 5.19135 42.8145 5.28097 43.4004C5.45985 44.5698 5.86463 45.6907 6.15109 46.3321C11.0173 57.2275 24.2713 61.4734 35.0777 58.7377C35.2227 58.701 35.3739 58.6631 35.5305 58.6239C36.0764 58.4872 36.6883 58.334 37.3334 58.1557C37.0048 60.1138 36.8296 62.1229 36.8148 64.1106C36.7711 70.0003 38.1355 76.0955 41.5317 80.284C43.4565 82.6578 47.1882 84.909 50.7693 85.6579C52.5844 86.0374 54.5796 86.0782 56.3702 85.3473C58.252 84.5793 59.682 83.0478 60.3844 80.7718C61.8472 76.0312 61.804 70.3188 61.5526 65.8135C61.3936 62.9637 61.0723 60.1961 60.4801 57.4281C61.9215 59.0036 63.4938 60.4915 65.2464 61.8561L65.4769 62.0355C68.4765 64.3716 71.9965 67.113 75.7926 69.2631C79.6861 71.4684 84.048 73.1584 88.6478 73.0977C92.4159 73.0479 95.1377 71.6629 96.5976 69.0813C97.956 66.6791 97.9569 63.6752 97.4559 60.8967C96.4484 55.3082 93.1278 49.1152 90.6028 46.1303C88.56 43.7155 86.5782 42.1339 84.2284 41.1728C81.9207 40.2289 79.4261 39.9557 76.5251 39.8608C74.9898 39.8106 72.8522 39.9699 70.5382 40.2486C71.9191 39.3705 73.3491 38.2991 74.4565 36.8697C77.5553 32.8698 79.533 27.4413 79.9853 22.4992L79.994 22.4043C80.1632 20.5575 80.4403 17.5335 79.9668 14.8908C79.7238 13.5348 79.2531 12.0848 78.3075 10.9144C77.3049 9.67348 75.8715 8.87931 74.0397 8.75722C68.9692 8.41926 64.0423 11.2926 60.7925 14.4894C57.4997 17.7284 55.5053 21.8194 54.0486 25.9533ZM49.2686 43.7659C49.2846 43.6418 49.3014 43.518 49.319 43.3942C49.226 43.3695 49.1297 43.3445 49.0299 43.3192C48.8929 43.2845 48.7472 43.2487 48.5945 43.2111C48.4517 43.1761 48.3029 43.1395 48.1495 43.1009C48.5206 43.3319 48.8939 43.5537 49.2686 43.7659ZM37.5754 39.3874C35.2403 38.8555 32.8281 38.5458 30.1974 38.3705C26.9805 38.1561 22.7426 38.0046 18.723 38.4927C14.6975 38.9815 11.2694 40.0707 9.2045 42.0109C9.20386 42.0148 9.20322 42.019 9.20257 42.0234C9.17979 42.1778 9.17995 42.4358 9.23498 42.7955C9.34541 43.5174 9.61867 44.2873 9.80337 44.7008C13.6753 53.3701 24.6527 57.2507 34.096 54.86C34.2304 54.826 34.3659 54.7919 34.5023 54.7576C35.789 54.4335 37.1512 54.0905 38.4026 53.6236C39.0729 51.461 39.9491 49.4498 41.0197 47.7091C41.3168 47.226 42.1892 46.0286 43.7112 46.2762C44.3861 46.3861 44.8479 46.7568 45.1102 47.0326C45.3762 47.3121 45.5554 47.6151 45.6739 47.8507C45.9118 48.324 46.0588 48.8388 46.1443 49.2405C46.2193 49.5926 46.3015 50.1096 46.2587 50.5654C45.9741 53.5979 43.8438 55.4149 41.7522 56.5109C41.1631 58.9164 40.8342 61.5245 40.8147 64.1404C40.7746 69.539 42.0525 74.5753 44.6387 77.7647C45.9275 79.3541 48.8156 81.1628 51.5881 81.7425C52.9498 82.0273 54.0647 81.968 54.8587 81.6439C55.5615 81.3571 56.1904 80.7974 56.5622 79.5924C57.7975 75.5891 57.808 70.502 57.5588 66.0363C57.3393 62.1027 56.7989 58.4489 55.6535 54.7638C55.5113 54.3063 55.0657 52.7018 54.6937 51.2884C54.5065 50.5771 54.3296 49.8831 54.2143 49.3831C54.1601 49.1482 54.1056 48.8976 54.0758 48.7006C54.0752 48.697 54.0747 48.6934 54.0741 48.6897C54.0342 48.8792 53.9808 49.0734 53.9079 49.2631C53.8036 49.5343 53.5786 50.0122 53.0902 50.3783C52.482 50.8342 51.7244 50.9238 51.0635 50.6948C50.5303 50.51 50.1921 50.1678 50.0262 49.9756C49.677 49.571 49.4635 49.0902 49.3386 48.7299C49.286 48.5784 49.2377 48.4148 49.1973 48.2434C45 46.2134 40.9581 43.1208 37.5754 39.3874ZM53.1467 47.4902C53.1465 47.4901 53.145 47.4873 53.1423 47.4817C53.1455 47.4873 53.1469 47.4902 53.1467 47.4902ZM54.2597 47.3796C54.6001 44.4313 54.5788 41.4297 54.4955 38.5618C54.6566 37.9867 54.8234 37.4073 54.9916 36.8233C55.1374 36.3168 55.2843 35.8068 55.4293 35.293C55.5458 34.8799 55.6613 34.4675 55.7766 34.0561C57.5564 27.7017 59.2645 21.6034 63.5975 17.341C66.4279 14.5569 70.2977 12.5167 73.7737 12.7484C74.4994 12.7967 74.8988 13.0603 75.1961 13.4282C75.5504 13.8668 75.8468 14.5769 76.0295 15.5963C76.399 17.6586 76.1802 20.1871 76.0019 22.1347C75.6125 26.3899 73.8838 31.0776 71.2944 34.4199C70.523 35.4157 69.4078 36.2526 68.0203 37.1053C67.4591 37.4502 66.8881 37.7775 66.2918 38.1193C66.1534 38.1986 66.0137 38.2787 65.8724 38.36C65.1395 38.7816 64.3741 39.2299 63.6493 39.7145C63.0951 40.0849 62.4866 40.6024 61.9382 41.0749C61.8461 41.1542 61.7543 41.2335 61.6628 41.3126C61.4508 41.4958 61.2401 41.6779 61.0292 41.8571C59.0633 42.2895 57.3214 42.7552 56.3062 43.1914C56.0266 43.3115 55.6306 43.4994 55.2941 43.7785C55.133 43.9121 54.8228 44.1974 54.6255 44.6576C54.3816 45.2266 54.3706 45.943 54.7491 46.5809C54.7726 46.6205 54.7969 46.6585 54.8218 46.695C54.6259 46.8474 54.4865 47.0145 54.3925 47.1531C54.3404 47.2299 54.2966 47.3061 54.2597 47.3796ZM58.1787 47.8577C60.9335 52.0133 63.8738 55.7178 67.7038 58.6999L67.8488 58.8128C70.9052 61.1928 74.2266 63.779 77.7639 65.7826C81.3575 67.8181 84.9961 69.1455 88.5949 69.098C91.3595 69.0615 92.5407 68.1293 93.1157 67.1124C93.7923 65.9159 93.9582 64.0398 93.5194 61.6064C92.6476 56.771 89.6627 51.2124 87.5489 48.7137C85.7868 46.6307 84.3009 45.5241 82.714 44.875C81.085 44.2087 79.1741 43.9496 76.3944 43.8587C73.4797 43.7633 67.4673 44.6021 62.8247 45.564C62.7762 45.603 62.7276 45.6418 62.6789 45.6803C62.0106 46.2093 61.251 46.7563 60.4586 47.1653C59.8243 47.4927 59.0394 47.8003 58.1787 47.8577ZM44.446 49.7758C44.4459 49.7761 44.4438 49.7792 44.4396 49.7847C44.4439 49.7783 44.4461 49.7755 44.446 49.7758ZM9.21915 41.9446C9.21919 41.9446 9.21869 41.9463 9.2175 41.9494C9.2185 41.946 9.2191 41.9445 9.21915 41.9446Z" fill="#C2FF75"/>
</svg>
